<svg xmlns="http://www.w3.org/2000/svg" width="1200" height="420" viewBox="0 0 1200 420" role="img" aria-labelledby="title desc">
  <title id="title">Academic Portfolio</title>
  <desc id="desc">A privacy-ready Academic Pages portfolio for publications, talks, teaching, projects, and curriculum vitae</desc>
  <defs>
    <linearGradient id="bg" x1="0" y1="0" x2="1" y2="1">
      <stop offset="0" stop-color="#0b1020"/>
      <stop offset="0.52" stop-color="#121c38"/>
      <stop offset="1" stop-color="#0b4250"/>
    </linearGradient>
    <linearGradient id="cyan" x1="0" y1="0" x2="1" y2="0">
      <stop offset="0" stop-color="#63e6ff"/>
      <stop offset="1" stop-color="#83f7c4"/>
    </linearGradient>
    <filter id="glow" x="-50%" y="-50%" width="200%" height="200%">
      <feGaussianBlur stdDeviation="9" result="blur"/>
      <feMerge><feMergeNode in="blur"/><feMergeNode in="SourceGraphic"/></feMerge>
    </filter>
    <pattern id="grid" width="34" height="34" patternUnits="userSpaceOnUse">
      <path d="M34 0H0V34" fill="none" stroke="#9bdfff" stroke-opacity=".06"/>
    </pattern>
  </defs>
  <rect width="1200" height="420" rx="28" fill="url(#bg)"/>
  <rect width="1200" height="420" rx="28" fill="url(#grid)"/>
  <circle cx="1010" cy="45" r="190" fill="#2fe2b2" opacity=".08"/>
  <circle cx="1090" cy="375" r="220" fill="#55a8ff" opacity=".08"/>
  <g transform="translate(78 65)">
    <rect width="72" height="72" rx="18" fill="#101a31" stroke="#63e6ff" stroke-opacity=".6"/>
    <path d="M16 23 36 14l20 9-20 9-20-9Zm7 8v13c8 7 18 7 26 0V31M58 26v17" fill="none" stroke="url(#cyan)" stroke-width="3" stroke-linecap="round" stroke-linejoin="round"/>
    <text x="0" y="124" fill="#edf8ff" font-family="Inter,Segoe UI,Arial,sans-serif" font-size="52" font-weight="750" letter-spacing="1">ACADEMIC PORTFOLIO</text>
    <rect y="143" width="470" height="4" rx="2" fill="url(#cyan)" filter="url(#glow)"/>
    <text x="0" y="184" fill="#b8cce0" font-family="Inter,Segoe UI,Arial,sans-serif" font-size="20">Privacy-ready · Data-driven · GitHub Pages</text>
    <text x="0" y="221" fill="#d9e7f2" font-family="Inter,Segoe UI,Arial,sans-serif" font-size="18">Publications, talks, teaching, projects, blog posts, and CV</text>
    <g transform="translate(0 256)" font-family="Inter,Segoe UI,Arial,sans-serif" font-size="14" font-weight="650">
      <g><rect width="114" height="34" rx="17" fill="#63e6ff" fill-opacity=".13" stroke="#63e6ff" stroke-opacity=".5"/><text x="57" y="22" text-anchor="middle" fill="#a6efff">JEKYLL</text></g>
      <g transform="translate(126)"><rect width="142" height="34" rx="17" fill="#83f7c4" fill-opacity=".12" stroke="#83f7c4" stroke-opacity=".45"/><text x="71" y="22" text-anchor="middle" fill="#b0f8d9">GITHUB PAGES</text></g>
      <g transform="translate(280)"><rect width="112" height="34" rx="17" fill="#86a8ff" fill-opacity=".13" stroke="#86a8ff" stroke-opacity=".45"/><text x="56" y="22" text-anchor="middle" fill="#b8c9ff">DOCKER</text></g>
      <g transform="translate(404)"><rect width="118" height="34" rx="17" fill="#f6c566" fill-opacity=".12" stroke="#f6c566" stroke-opacity=".45"/><text x="59" y="22" text-anchor="middle" fill="#ffe0a1">BILINGUAL</text></g>
    </g>
  </g>
  <g transform="translate(720 72)" font-family="Inter,Segoe UI,Arial,sans-serif">
    <rect width="398" height="276" rx="22" fill="#091124" stroke="#9bdfff" stroke-opacity=".22"/>
    <rect x="20" y="20" width="358" height="42" rx="12" fill="#111f3b"/>
    <circle cx="43" cy="41" r="7" fill="#ff6b81"/><circle cx="65" cy="41" r="7" fill="#ffd166"/><circle cx="87" cy="41" r="7" fill="#78e08f"/>
    <rect x="112" y="34" width="145" height="14" rx="7" fill="#7ba8d4" opacity=".28"/>
    <g transform="translate(24 84)">
      <rect width="90" height="168" rx="16" fill="#111c34"/>
      <circle cx="45" cy="43" r="25" fill="#213150"/>
      <path d="M28 42c5-20 29-20 34 0v11H28Z" fill="#6f8fb2"/>
      <rect x="16" y="84" width="58" height="8" rx="4" fill="#d8e7f5" opacity=".65"/>
      <rect x="24" y="101" width="42" height="6" rx="3" fill="#7b9fbe" opacity=".45"/>
      <rect x="18" y="129" width="54" height="6" rx="3" fill="#63e6ff" opacity=".5"/>
      <rect x="18" y="144" width="45" height="6" rx="3" fill="#83f7c4" opacity=".45"/>
    </g>
    <g transform="translate(134 88)">
      <rect width="220" height="15" rx="7" fill="#e8f4ff" opacity=".82"/>
      <rect y="28" width="188" height="8" rx="4" fill="#7da5c8" opacity=".5"/>
      <rect y="48" width="205" height="8" rx="4" fill="#7da5c8" opacity=".36"/>
      <rect y="82" width="96" height="11" rx="5" fill="#63e6ff" opacity=".7"/>
      <rect y="108" width="220" height="8" rx="4" fill="#7da5c8" opacity=".42"/>
      <rect y="127" width="184" height="8" rx="4" fill="#7da5c8" opacity=".34"/>
      <rect y="146" width="202" height="8" rx="4" fill="#7da5c8" opacity=".3"/>
    </g>
  </g>
</svg>
